<svg width="211" height="637" viewBox="0 0 211 637" fill="none" xmlns="http://www.w3.org/2000/svg">
<path d="M117.5 411C135.137 411 152.051 403.836 164.523 391.083C176.994 378.331 184 361.035 184 343C184 324.965 176.994 307.669 164.523 294.917C152.051 282.164 135.137 275 117.5 275V284.747C132.609 284.747 147.099 290.884 157.782 301.809C168.466 312.733 174.468 327.55 174.468 343C174.468 358.45 168.466 373.267 157.782 384.191C147.099 395.116 132.609 401.253 117.5 401.253V411Z" fill="#090909"/>
<path d="M118.957 283.362C101.995 283.458 85.7623 289.8 73.8311 300.993C61.8998 312.186 55.2469 327.313 55.3361 343.046C55.4252 358.779 62.249 373.83 74.3063 384.887C86.3636 395.944 102.667 402.101 119.629 402.005L119.293 342.684L118.957 283.362Z" fill="#FF1C51"/>
<path d="M119 431C143.4 431 166.8 421.729 184.054 405.225C201.307 388.722 211 366.339 211 343C211 319.661 201.307 297.278 184.054 280.775C166.8 264.271 143.4 255 119 255V267.614C139.902 267.614 159.949 275.556 174.729 289.694C189.509 303.832 197.813 323.006 197.813 343C197.813 362.994 189.509 382.168 174.729 396.306C159.949 410.444 139.902 418.386 119 418.386V431Z" fill="#090909"/>
<path d="M0 543.5L120 462.527L120 624.473L0 543.5Z" fill="white"/>
<path d="M0 93.5L120 12.5266L120 174.473L0 93.5Z" fill="white"/>
</svg>
